<svg width="13" height="24" viewBox="0 0 13 24" fill="none" xmlns="http://www.w3.org/2000/svg">
<path d="M2.40976 12.0052L12.6716 22.0674C12.8861 22.2834 12.9933 22.5474 12.9933 22.8592C12.9935 23.1711 12.8852 23.4392 12.6684 23.6634C12.437 23.8878 12.1625 24 11.8447 24C11.5271 24 11.2541 23.8877 11.0256 23.663L0.58993 13.4199C0.381655 13.2185 0.23121 12.9946 0.138594 12.7482C0.046198 12.5018 0 12.2548 0 12.0071C0 11.7594 0.0455397 11.5117 0.136619 11.264C0.227698 11.0164 0.378802 10.789 0.58993 10.582L11.0391 0.327556C11.2705 0.102701 11.5431 -0.00638792 11.8572 0.000288807C12.171 0.00696553 12.4425 0.122625 12.6716 0.347265C12.8861 0.57212 12.9955 0.83811 12.9999 1.14524C13.0045 1.45215 12.8951 1.71804 12.6716 1.94289L2.40976 12.0052Z" fill="#F9771A"/>
</svg>
