<svg width="22" height="22" viewBox="0 0 22 22" fill="none" xmlns="http://www.w3.org/2000/svg">
<path d="M10.5288 12.0029L1.79167 20.7404C1.59083 20.9413 1.34778 21.0443 1.0625 21.0496C0.777222 21.0549 0.52875 20.9518 0.317083 20.7404C0.105694 20.5288 0 20.2829 0 20.0029C0 19.7232 0.105694 19.4775 0.317083 19.2658L9.05458 10.5288L0.317083 1.79167C0.11625 1.59083 0.0131945 1.34778 0.00791677 1.0625C0.00263899 0.777222 0.105694 0.528749 0.317083 0.317083C0.52875 0.105694 0.774583 0 1.05458 0C1.33431 0 1.58 0.105694 1.79167 0.317083L10.5288 9.05458L19.2658 0.317083C19.4667 0.116249 19.7097 0.0131945 19.995 0.00791677C20.2803 0.00263899 20.5288 0.105694 20.7404 0.317083C20.9518 0.528749 21.0575 0.774583 21.0575 1.05458C21.0575 1.33431 20.9518 1.58 20.7404 1.79167L12.0029 10.5288L20.7404 19.2658C20.9413 19.4667 21.0443 19.7097 21.0496 19.995C21.0549 20.2803 20.9518 20.5288 20.7404 20.7404C20.5288 20.9518 20.2829 21.0575 20.0029 21.0575C19.7232 21.0575 19.4775 20.9518 19.2658 20.7404L10.5288 12.0029Z" fill="white"/>
</svg>
