<svg width="20" height="20" viewBox="0 0 20 20" fill="none" xmlns="http://www.w3.org/2000/svg">
<path d="M10 11.4001L1.70169 19.6988C1.51094 19.8896 1.28009 19.9875 1.00914 19.9925C0.73819 19.9975 0.502196 19.8996 0.30116 19.6988C0.100387 19.4978 0 19.2643 0 18.9984C0 18.7327 0.100387 18.4993 0.30116 18.2983L8.59987 10L0.30116 1.70169C0.110412 1.51094 0.0125319 1.28009 0.00751919 1.00914C0.00250646 0.73819 0.100387 0.502196 0.30116 0.301159C0.502196 0.100386 0.735684 0 1.00162 0C1.2673 0 1.50065 0.100386 1.70169 0.301159L10 8.59987L18.2983 0.301159C18.4891 0.110411 18.7199 0.0125319 18.9909 0.00751919C19.2618 0.00250646 19.4978 0.100386 19.6988 0.301159C19.8996 0.502196 20 0.735684 20 1.00162C20 1.2673 19.8996 1.50065 19.6988 1.70169L11.4001 10L19.6988 18.2983C19.8896 18.4891 19.9875 18.7199 19.9925 18.9909C19.9975 19.2618 19.8996 19.4978 19.6988 19.6988C19.4978 19.8996 19.2643 20 18.9984 20C18.7327 20 18.4993 19.8996 18.2983 19.6988L10 11.4001Z" fill="#7D7DCF"/>
</svg>
