<svg width="20" height="20" viewBox="0 0 20 20" fill="none" xmlns="http://www.w3.org/2000/svg">
<path d="M10.05 20C9.21667 20 8.50833 19.7083 7.925 19.125C7.34167 18.5417 7.05 17.8333 7.05 17C7.05 16.3667 7.23333 15.7958 7.6 15.2875C7.96667 14.7792 8.43333 14.4167 9 14.2V7.8L5.575 11.95C5.70833 12.1833 5.8125 12.4292 5.8875 12.6875C5.9625 12.9458 6 13.2167 6 13.5C6 14.3333 5.70833 15.0417 5.125 15.625C4.54167 16.2083 3.83333 16.5 3 16.5C2.16667 16.5 1.45833 16.2083 0.875 15.625C0.291667 15.0417 0 14.3333 0 13.5C0 12.6667 0.291667 11.9583 0.875 11.375C1.45833 10.7917 2.16667 10.5 3 10.5C3.18333 10.5 3.35833 10.5125 3.525 10.5375C3.69167 10.5625 3.85833 10.6083 4.025 10.675L8.325 5.475C7.925 5.19167 7.60417 4.8375 7.3625 4.4125C7.12083 3.9875 7 3.51667 7 3C7 2.16667 7.29167 1.45833 7.875 0.875C8.45833 0.291667 9.16667 0 10 0C10.8333 0 11.5417 0.291667 12.125 0.875C12.7083 1.45833 13 2.16667 13 3C13 3.51667 12.8792 3.9875 12.6375 4.4125C12.3958 4.8375 12.075 5.19167 11.675 5.475L15.975 10.675C16.1417 10.6083 16.3083 10.5625 16.475 10.5375C16.6417 10.5125 16.8167 10.5 17 10.5C17.8333 10.5 18.5417 10.7917 19.125 11.375C19.7083 11.9583 20 12.6667 20 13.5C20 14.3333 19.7083 15.0417 19.125 15.625C18.5417 16.2083 17.8333 16.5 17 16.5C16.1667 16.5 15.4583 16.2083 14.875 15.625C14.2917 15.0417 14 14.3333 14 13.5C14 13.2167 14.0375 12.9458 14.1125 12.6875C14.1875 12.4292 14.2917 12.1833 14.425 11.95L11 7.8V14.15C11.6 14.35 12.0917 14.7083 12.475 15.225C12.8583 15.7417 13.05 16.3333 13.05 17C13.05 17.8333 12.7583 18.5417 12.175 19.125C11.5917 19.7083 10.8833 20 10.05 20ZM10.05 18C10.3333 18 10.5708 17.9042 10.7625 17.7125C10.9542 17.5208 11.05 17.2833 11.05 17C11.05 16.7167 10.9542 16.4792 10.7625 16.2875C10.5708 16.0958 10.3333 16 10.05 16C9.76667 16 9.52917 16.0958 9.3375 16.2875C9.14583 16.4792 9.05 16.7167 9.05 17C9.05 17.2833 9.14583 17.5208 9.3375 17.7125C9.52917 17.9042 9.76667 18 10.05 18ZM3 14.5C3.28333 14.5 3.52083 14.4042 3.7125 14.2125C3.90417 14.0208 4 13.7833 4 13.5C4 13.2167 3.90417 12.9792 3.7125 12.7875C3.52083 12.5958 3.28333 12.5 3 12.5C2.71667 12.5 2.47917 12.5958 2.2875 12.7875C2.09583 12.9792 2 13.2167 2 13.5C2 13.7833 2.09583 14.0208 2.2875 14.2125C2.47917 14.4042 2.71667 14.5 3 14.5ZM17 14.5C17.2833 14.5 17.5208 14.4042 17.7125 14.2125C17.9042 14.0208 18 13.7833 18 13.5C18 13.2167 17.9042 12.9792 17.7125 12.7875C17.5208 12.5958 17.2833 12.5 17 12.5C16.7167 12.5 16.4792 12.5958 16.2875 12.7875C16.0958 12.9792 16 13.2167 16 13.5C16 13.7833 16.0958 14.0208 16.2875 14.2125C16.4792 14.4042 16.7167 14.5 17 14.5ZM10 4C10.2833 4 10.5208 3.90417 10.7125 3.7125C10.9042 3.52083 11 3.28333 11 3C11 2.71667 10.9042 2.47917 10.7125 2.2875C10.5208 2.09583 10.2833 2 10 2C9.71667 2 9.47917 2.09583 9.2875 2.2875C9.09583 2.47917 9 2.71667 9 3C9 3.28333 9.09583 3.52083 9.2875 3.7125C9.47917 3.90417 9.71667 4 10 4Z" fill="#F9771A"/>
</svg>
