<svg width="41" height="8" viewBox="0 0 41 8" fill="none" xmlns="http://www.w3.org/2000/svg">
<path d="M37 0C38.1 0 39.0417 0.391666 39.825 1.175C40.6083 1.95833 41 2.9 41 4C41 5.1 40.6083 6.04167 39.825 6.825C39.0417 7.60833 38.1 8 37 8C35.9 8 34.9583 7.60833 34.175 6.825C33.3917 6.04167 33 5.1 33 4C33 2.9 33.3917 1.95833 34.175 1.175C34.9583 0.391666 35.9 0 37 0ZM37 2.3C36.5207 2.3 36.1175 2.4635 35.7905 2.7905C35.4635 3.1175 35.3 3.52067 35.3 4C35.3 4.47933 35.4635 4.8825 35.7905 5.2095C36.1175 5.5365 36.5207 5.7 37 5.7C37.4793 5.7 37.8825 5.5365 38.2095 5.2095C38.5365 4.8825 38.7 4.47933 38.7 4C38.7 3.52067 38.5365 3.1175 38.2095 2.7905C37.8825 2.4635 37.4793 2.3 37 2.3ZM26 0C27.1 0 28.0417 0.391666 28.825 1.175C29.6083 1.95833 30 2.9 30 4C30 5.1 29.6083 6.04167 28.825 6.825C28.0417 7.60833 27.1 8 26 8C24.9 8 23.9583 7.60833 23.175 6.825C22.3917 6.04167 22 5.1 22 4C22 2.9 22.3917 1.95833 23.175 1.175C23.9583 0.391666 24.9 0 26 0ZM26 2.3C25.5207 2.3 25.1175 2.4635 24.7905 2.7905C24.4635 3.1175 24.3 3.52067 24.3 4C24.3 4.47933 24.4635 4.8825 24.7905 5.2095C25.1175 5.5365 25.5207 5.7 26 5.7C26.4793 5.7 26.8825 5.5365 27.2095 5.2095C27.5365 4.8825 27.7 4.47933 27.7 4C27.7 3.52067 27.5365 3.1175 27.2095 2.7905C26.8825 2.4635 26.4793 2.3 26 2.3ZM15 0C16.1 0 17.0417 0.391666 17.825 1.175C18.6083 1.95833 19 2.9 19 4C19 5.1 18.6083 6.04167 17.825 6.825C17.0417 7.60833 16.1 8 15 8C13.9 8 12.9583 7.60833 12.175 6.825C11.3917 6.04167 11 5.1 11 4C11 2.9 11.3917 1.95833 12.175 1.175C12.9583 0.391666 13.9 0 15 0ZM15 2.3C14.5207 2.3 14.1175 2.4635 13.7905 2.7905C13.4635 3.1175 13.3 3.52067 13.3 4C13.3 4.47933 13.4635 4.8825 13.7905 5.2095C14.1175 5.5365 14.5207 5.7 15 5.7C15.4793 5.7 15.8825 5.5365 16.2095 5.2095C16.5365 4.8825 16.7 4.47933 16.7 4C16.7 3.52067 16.5365 3.1175 16.2095 2.7905C15.8825 2.4635 15.4793 2.3 15 2.3ZM4 0C5.1 0 6.04167 0.391666 6.825 1.175C7.60833 1.95833 8 2.9 8 4C8 5.1 7.60833 6.04167 6.825 6.825C6.04167 7.60833 5.1 8 4 8C2.9 8 1.95833 7.60833 1.175 6.825C0.391666 6.04167 0 5.1 0 4C0 2.9 0.391666 1.95833 1.175 1.175C1.95833 0.391666 2.9 0 4 0Z" fill="#F9771A"/>
</svg>
